<?xml version="1.0" encoding="utf-8"?>
<!-- Generator: Adobe Illustrator 23.0.3, SVG Export Plug-In . SVG Version: 6.00 Build 0)  -->
<svg version="1.1" xmlns="http://www.w3.org/2000/svg" xmlns:xlink="http://www.w3.org/1999/xlink" x="0px" y="0px"
	 viewBox="0 0 284.9 287.63" style="enable-background:new 0 0 284.9 287.63;" xml:space="preserve">
<style type="text/css">
	.st0{fill:#C23B22;}
	.st1{fill:#FFD963;}
	.st2{fill:#FBB040;}
	.st3{fill:#231F20;}
</style>
<g id="Layer_4">
	<g>
		<path class="st0" d="M150.31,52.52c10.5-1.94,21.12-3.23,31.78-3.86c-0.18-3.18-0.63-6.35-1.33-9.45
			c-0.62-2.76-1.49-5.56-3.31-7.73c-1.82-2.17-4.8-3.56-7.53-2.8c-2.39,0.67-4.07,2.77-5.38,4.88c1.26-4.31-1.99-9.35-6.43-9.98
			s-8.97,3.32-8.94,7.81c-4.06-3.59-10.89-3.46-14.81,0.29c-1.22,1.17-2.18,2.66-2.45,4.33c-0.47,2.9,1.28,5.81,3.7,7.48
			c2.42,1.66,5.39,2.29,8.3,2.64c1.88,0.23,4.34,0.99,4.22,2.88c-0.14,2.09-3.2,2.27-5.13,1.47c-4.42-1.82-8.09-5.38-10.05-9.74
			c4.38,4.51,9.95,7.84,16,9.57c-0.22,0.96-1.54,1.45-2.33,0.86c0.56,0.98,1.84,1.47,2.92,1.14"/>
		<g>
			<path class="st0" d="M151.11,55.41c10.26-1.86,20.58-3.1,30.99-3.75c1.53-0.09,3.13-1.3,3-3c-0.51-6.9-1.19-16.16-7.12-20.78
				c-6.08-4.74-12.22-1.51-16.01,4.17c1.83,0.77,3.66,1.54,5.48,2.31c1.19-6.02-2.17-12.47-8.53-13.67
				c-6.75-1.28-12.15,4.42-12.74,10.71c1.5-0.86,3.01-1.73,4.51-2.59c-7.43-5.69-22.89-2.36-21.78,9.05
				c0.52,5.33,5.03,8.91,9.87,10.34c1.13,0.33,3.15,0.93,4.34,0.83c2.59-0.22,2.11-0.85,0.1-1.73c-3.52-1.54-6.01-4.73-7.67-8.07
				c-1.57,1.21-3.14,2.42-4.71,3.64c4.94,4.87,10.69,8.29,17.32,10.34c-0.6-1.47-1.2-2.94-1.79-4.41c0.35-0.17,0.71-0.34,1.06-0.51
				c-2.93-0.81-4.97,2.87-2.92,5.01c1.44,1.51,2.92,2.15,5.04,2.01c3.83-0.25,3.86-6.25,0-6c-0.26-0.09-0.53-0.17-0.79-0.26
				c-0.97,1.67-1.95,3.34-2.92,5.01c2.53,0.7,4.29-0.12,5.72-2.24c1.12-1.67-0.05-3.87-1.79-4.41c-5.65-1.75-10.46-4.64-14.67-8.8
				c-2.5-2.47-6.2,0.64-4.71,3.64c2.4,4.82,6.59,9.39,11.84,11.12c3.39,1.12,8.43,0.38,8.88-3.96c0.56-5.43-5.58-5.76-9.28-6.64
				c-4.11-0.98-9.5-4.52-5.31-8.96c3.03-3.21,8.12-2.16,11.17,0.18c2,1.53,4.33-0.62,4.51-2.59c0.67-7.12,10.83-5.41,9.48,1.37
				c-0.66,3.33,3.56,5.2,5.48,2.31c1.56-2.35,3.52-4.64,6.64-2.86c1.77,1,2.75,3.23,3.36,5.04c1.22,3.64,1.67,7.6,1.95,11.41
				c1-1,2-2,3-3c-10.94,0.68-21.8,2.01-32.58,3.96C145.72,50.31,147.33,56.1,151.11,55.41L151.11,55.41z"/>
		</g>
	</g>
	<g id="Layer_5">
		<g>
			<path class="st1" d="M233.53,137.92c6.39-4.05,13.55-6.88,20.99-8.29c2.15-0.41,4.51-0.67,6.39,0.45
				c1.88,1.11,2.68,4.14,0.95,5.48c2-0.29,4.03-0.44,6.05-0.45c1.97-0.01,4.16,0.22,5.46,1.69c1.59,1.79,1.08,4.74-0.47,6.56
				s-3.85,2.79-6.06,3.7c3.27,1.98,6.99,4.86,6.44,8.65c-0.3,2.08-1.93,3.78-3.82,4.72c-1.88,0.94-4.01,1.25-6.09,1.54
				c-7.31,1.04-15.25,1.96-21.65-1.72"/>
			<g>
				<path class="st1" d="M234.79,140.08c3.8-2.33,7.74-4.33,11.96-5.79c1.65-0.57,3.33-1.07,5.02-1.5c1.13-0.28,2.27-0.53,3.41-0.75
					c2.1-0.85,3.74-0.27,4.91,1.75c-1.2,1.44-0.61,4.57,1.77,4.27c2.01-0.25,5.29-1.05,7.2-0.35c5.31,1.95-0.01,5.73-2.9,6.94
					c-1.94,0.81-2.56,3.32-0.6,4.57c3.2,2.03,7,5.37,2.98,8.68c-2.1,1.73-6.63,1.8-9.15,2.08c-5.62,0.63-11.27,0.77-16.42-1.89
					c-2.86-1.47-5.39,2.84-2.52,4.32c4.71,2.43,9.67,3.17,14.94,2.92c4.72-0.22,10.75-0.48,15.03-2.62
					c3.18-1.59,5.67-4.66,5.37-8.38c-0.36-4.39-4.29-7.27-7.7-9.43c-0.2,1.52-0.4,3.05-0.6,4.57c4.64-1.95,10.37-5.23,9.21-11.24
					c-1.31-6.73-9.8-5.8-14.84-5.17c0.59,1.42,1.18,2.85,1.77,4.27c3.98-4.78-0.19-10.4-5.81-10.54
					c-8.67-0.22-18.37,4.58-25.55,8.98C229.53,137.44,232.04,141.77,234.79,140.08L234.79,140.08z"/>
			</g>
		</g>
	</g>
</g>
<g id="Layer_1">
	<g>
		<path class="st2" d="M184.4,53.25c-32.99-9.87-68.55,9.16-79.16,41.75c-5.41,16.61-0.94,35.01-13.61,48.88
			c-5.83,6.38-12.61,11.67-17.79,18.66c-5.09,6.87-8.98,14.76-10.56,23.21c-3.11,16.63,3.36,33.09,17.82,42.1
			c14.14,8.81,31.9,11.05,48.01,13.73c19.67,3.28,39.87,6.46,59.86,6.27c16.74-0.16,35.07-3.17,48.16-14.47
			c12.81-11.05,15.9-28.14,13.57-44.24c-2.55-17.65-13.99-34.01-12.91-52.13c0.25-4.17,1.22-8.26,2.65-12.17"/>
		<g>
			<path class="st2" d="M185.07,50.84c-29.67-8.51-62.39,4.95-77.3,32.09c-4.01,7.3-6.34,15.11-7.46,23.34
				c-1.14,8.37-1.28,17.05-4.12,25.09c-3.52,9.96-12.06,16.09-19.08,23.5c-6.4,6.75-11.53,14.74-14.5,23.59
				c-5.15,15.33-2.44,32.77,8.83,44.71c12.56,13.31,32.45,16.79,49.67,19.62c21.18,3.49,42.47,7.32,64,7.56
				c17.52,0.19,36.4-2.08,50.86-12.84c14.97-11.14,19.69-29.76,17.34-47.63c-2.92-22.2-18.38-41.39-10.45-64.37
				c1.05-3.05-3.78-4.36-4.82-1.33c-5.97,17.29,0.05,32.69,5.81,49.08c5.4,15.37,8.01,33.01-0.13,47.99
				c-8.58,15.79-27.06,21.97-43.94,23.57c-19.48,1.84-39.29-0.76-58.52-3.77c-17.58-2.76-36.82-4.37-53.05-12.16
				c-15.22-7.3-24.5-21.61-23.02-38.74c0.83-9.57,5.1-18.73,10.82-26.34c5.55-7.39,13.24-12.81,18.97-20.02
				c9.86-12.41,8.12-28.31,11.3-42.94c7.44-34.2,44.37-54.67,77.46-45.18C186.84,56.55,188.16,51.72,185.07,50.84L185.07,50.84z"/>
		</g>
	</g>
	<g>
		<path class="st2" d="M166.61,50.88c14.12-1.33,28.55-2.05,42.3,1.43c13.75,3.47,26.89,11.72,33.26,24.38
			c8.85,17.58,2.98,38.88-5.15,56.79"/>
		<g>
			<path class="st2" d="M166.61,53.38c22.37-2.06,48.16-2.63,65.57,14.07c18.38,17.64,11.89,44.21,2.69,64.77
				c-1.3,2.91,3,5.46,4.32,2.52c9.73-21.73,16.44-49.18-1.44-68.75c-18-19.71-46.58-19.88-71.13-17.61
				C163.43,48.67,163.4,53.68,166.61,53.38L166.61,53.38z"/>
		</g>
	</g>
	<g>
		<path class="st2" d="M75.7,178.27c-4.24,0.56-8.41-1.94-11.04-5.31s-4.02-7.52-5.41-11.56c-1.99-5.78-4.19-11.7-8.38-16.16
			s-10.88-7.12-16.56-4.86c-0.68,0.27-1.35,0.62-1.8,1.19c-0.68,0.85-0.75,2.02-0.79,3.11c-0.24,6.3-0.45,12.76,1.61,18.72
			c2.33,6.73,7.41,12.23,13.24,16.31s12.44,6.88,19,9.66"/>
		<g>
			<path class="st2" d="M75.7,175.77c-8.57,0.47-11.7-8.39-14.04-15.04c-1.92-5.44-3.91-10.92-7.53-15.5
				c-3.09-3.91-7.39-6.9-12.34-7.86c-3.5-0.68-8.82-0.41-11.24,2.68c-2.74,3.5-1.63,10.91-1.32,14.96
				c0.43,5.62,1.88,10.99,4.99,15.73c6.98,10.65,18.79,15.97,30.1,20.77c2.93,1.24,5.48-3.06,2.52-4.32
				c-9.53-4.04-19.64-8.27-26.43-16.43c-3.76-4.51-5.74-9.92-6.18-15.75c-0.21-2.7-0.49-5.93-0.06-8.62
				c0.6-3.75,2.94-4.75,6.62-4.09c19.77,3.57,12.52,39.7,34.92,38.47C78.9,180.59,78.93,175.59,75.7,175.77L75.7,175.77z"/>
		</g>
	</g>
	<g>
		<path class="st2" d="M72.95,186.62c-2.59,3.61-7.66,4.7-12.01,3.8c-4.35-0.9-8.16-3.42-11.86-5.89
			c-3.67-2.45-7.37-4.92-10.51-8.03c-2.01-1.99-3.83-4.27-6.33-5.59c-3.26-1.72-7.16-1.54-10.84-1.32c-1.11,0.07-2.36,0.2-3.06,1.06
			c-0.48,0.58-0.6,1.38-0.64,2.13c-0.39,6.78,3.99,13.19,9.77,16.75s12.73,4.69,19.51,4.94c6.78,0.25,13.59-0.31,20.35,0.23"/>
		<g>
			<path class="st2" d="M71.18,184.85c-8.98,10.66-26.77-6.21-33.32-12.66c-3.81-3.75-7.95-5.23-13.27-5.23
				c-3.5,0-7.91,0.04-9.15,4.03c-2.84,9.18,6.29,18.81,13.74,22.29c11.92,5.56,25.48,3.1,38.15,3.93c3.21,0.21,3.2-4.79,0-5
				c-10.92-0.72-22.52,1.3-33.08-2.27c-5.22-1.77-10-5.07-12.53-10.1c-0.6-1.19-1.39-3.09-1.38-4.52c0.01-2.29,0.53-2.85,2.66-3.31
				c2.79-0.6,6.61,0.21,8.89,1.67c3.63,2.32,6.35,6.12,9.82,8.75c3.92,2.97,8.13,5.98,12.54,8.17c6.71,3.34,15.21,4.04,20.47-2.21
				C76.78,185.94,73.26,182.38,71.18,184.85L71.18,184.85z"/>
		</g>
	</g>
	<g>
		<path class="st2" d="M62.7,192.82c-8.56,2.32-17.47,3.35-26.34,3.04c-3.31-0.12-6.92-0.33-9.6,1.61c-2.98,2.16-3.74,6.58-2.3,9.97
			c1.44,3.39,4.67,5.77,8.15,6.98c6.78,2.35,14.43,0.66,20.68-2.86s11.36-8.71,16.38-13.83"/>
		<g>
			<path class="st2" d="M62.04,190.41c-6.24,1.62-12.57,2.67-19.02,2.93c-4.67,0.19-9.85-0.78-14.42,0.53
				c-7.66,2.2-9.22,11.58-4.7,17.44c5.33,6.9,15.33,7.79,23.16,5.56c9.9-2.82,17.37-10.23,24.38-17.37c2.26-2.3-1.28-5.84-3.54-3.54
				c-4.84,4.93-9.77,10.06-15.87,13.44c-6.63,3.68-16.35,5.76-22.69,0.33c-3.95-3.38-4.55-9.78,1.64-11.23
				c3.16-0.74,6.92-0.06,10.13-0.12c7.53-0.14,14.97-1.27,22.25-3.16C66.48,194.43,65.16,189.6,62.04,190.41L62.04,190.41z"/>
		</g>
	</g>
	<g>
		<path class="st1" d="M119.68,152.12c-0.74,0.71-1.87,0.98-2.85,0.71c5.37-3.13,11.02-6,17.14-7.08
			c6.12-1.08,12.83-0.16,17.72,3.68c4.89,3.84,7.39,10.94,4.85,16.61c-1.06,2.37-2.86,4.33-4.68,6.18
			c-12.9,13.14-28.99,23.94-47.14,27.02c-3.23,0.55-6.92,0.73-9.41-1.41c-2.49-2.14-1.95-7.3,1.31-7.64
			c-3.21,1.25-7.13,1.63-9.88-0.45c-2.75-2.08-2.92-7.22,0.27-8.52c-2.87,0.89-5.4-2.89-4.58-5.79c0.82-2.9,3.53-4.78,6.07-6.39
			c13.25-8.4,27.02-15.97,41.21-22.65"/>
		<g>
			<path class="st1" d="M118.42,149.96c-0.53,0.12-1.06,0.24-1.59,0.37c0.42,1.55,0.84,3.11,1.26,4.66
				c8.48-4.88,18.88-9.82,28.63-5.57c4.89,2.13,8.67,6.98,8.29,12.52c-0.35,5.16-5.5,9.21-9.02,12.49
				c-6.8,6.33-14.37,11.88-22.69,16.03c-4.14,2.07-8.47,3.74-12.94,4.97c-2.42,0.66-4.91,1.27-7.41,1.52
				c-1.36,0.14-2.55,0.26-3.89-0.18c-0.75-0.25-5.15-3.28-1.79-4.17c-0.44-1.61-0.89-3.21-1.33-4.82c-1.77,0.6-4.07,1.36-5.95,0.77
				c-1.89-0.59-4.53-3.54-1.73-5.17c1.99-1.16,1.31-4.96-1.26-4.66c-2.75-1.61-2.89-3.34-0.43-5.2c0.99-0.87,2.05-1.64,3.17-2.32
				c1.56-1.05,3.19-2.01,4.79-2.99c4.01-2.46,8.07-4.84,12.17-7.15c7.93-4.46,16.03-8.62,24.25-12.52c2.91-1.38,0.37-5.69-2.52-4.32
				c-13.89,6.58-27.44,13.91-40.42,22.15c-3.8,2.41-8.55,5.61-8.2,10.74c0.26,3.78,3.25,7.07,7.18,6.6
				c-0.42-1.55-0.84-3.11-1.26-4.66c-3.63,2.12-4.6,6.75-2.5,10.39c2.87,4.96,9.29,4.77,14.04,3.16c3.02-1.02,1.81-5.66-1.33-4.82
				c-4.24,1.13-5.76,5.91-3.94,9.73c2.37,4.96,8.75,4.9,13.36,4.14c15.15-2.49,28.97-10.55,40.5-20.42
				c4.91-4.2,11.65-9.35,13.57-15.86c1.68-5.72-0.38-12.02-4.41-16.25c-10.9-11.45-27.99-5.06-39.46,1.55
				c-2.17,1.25-1.2,4.63,1.26,4.66c1.91,0.02,2.44-0.14,4.11-1.05C123.78,152.75,121.26,148.43,118.42,149.96L118.42,149.96z"/>
		</g>
	</g>
</g>
<g id="Layer_2">
	<g>
		<g>
			<path class="st1" d="M180.68,166.57c-1.03,2.27-2.06,4.53-3.09,6.8c-0.79,1.74,1.79,3.27,2.59,1.51c1.03-2.27,2.06-4.53,3.09-6.8
				C184.07,166.34,181.48,164.81,180.68,166.57L180.68,166.57z"/>
		</g>
	</g>
	<g>
		<g>
			<path class="st1" d="M206.32,163.47c-0.91,1.83-1.17,3.7-0.86,5.72c0.12,0.8,1.13,1.24,1.85,1.05c0.86-0.24,1.17-1.04,1.05-1.85
				c-0.18-1.16,0.04-2.36,0.56-3.41C209.76,163.26,207.18,161.73,206.32,163.47L206.32,163.47z"/>
		</g>
	</g>
	<g>
		<g>
			<path class="st1" d="M238.04,160.85c0.88,2.29,2.39,4.16,4.49,5.43c1.66,1,3.17-1.59,1.51-2.59c-1.4-0.84-2.52-2.1-3.12-3.64
				c-0.29-0.76-1.01-1.28-1.85-1.05C238.36,159.2,237.74,160.09,238.04,160.85L238.04,160.85z"/>
		</g>
	</g>
	<g>
		<g>
			<path class="st1" d="M219.09,177.23c0.52,0.75,1.04,1.5,1.56,2.25c0.46,0.66,1.31,0.97,2.05,0.54c0.66-0.38,1-1.38,0.54-2.05
				c-0.52-0.75-1.04-1.5-1.56-2.25c-0.46-0.66-1.31-0.97-2.05-0.54C218.97,175.56,218.63,176.56,219.09,177.23L219.09,177.23z"/>
		</g>
	</g>
	<g>
		<g>
			<path class="st1" d="M194.46,198.83c-1.4,1.52-2.17,3.52-1.97,5.6c0.08,0.81,0.63,1.5,1.5,1.5c0.75,0,1.58-0.69,1.5-1.5
				c-0.13-1.3,0.19-2.5,1.09-3.48C197.89,199.53,195.77,197.41,194.46,198.83L194.46,198.83z"/>
		</g>
	</g>
	<g>
		<g>
			<path class="st1" d="M171.26,192.55c-2.85,1.82-5.15,4.29-6.71,7.29c-0.89,1.71,1.7,3.23,2.59,1.51c1.32-2.55,3.2-4.67,5.63-6.21
				C174.4,194.1,172.89,191.51,171.26,192.55L171.26,192.55z"/>
		</g>
	</g>
	<g>
		<g>
			<path class="st1" d="M224.02,203.97c0.51,0.51,1.01,1.01,1.52,1.52c0.57,0.57,1.55,0.57,2.12,0c0.57-0.57,0.57-1.55,0-2.12
				c-0.51-0.51-1.01-1.01-1.52-1.52c-0.57-0.57-1.55-0.57-2.12,0C223.45,202.43,223.45,203.4,224.02,203.97L224.02,203.97z"/>
		</g>
	</g>
	<g>
		<g>
			<path class="st1" d="M241.11,199.52c0.75,0.52,1.5,1.04,2.25,1.56c0.67,0.46,1.67,0.12,2.05-0.54c0.44-0.75,0.13-1.59-0.54-2.05
				c-0.75-0.52-1.5-1.04-2.25-1.56c-0.67-0.46-1.67-0.12-2.05,0.54C240.13,198.21,240.44,199.05,241.11,199.52L241.11,199.52z"/>
		</g>
	</g>
	<g>
		<g>
			<path class="st1" d="M213.07,219.21c-0.31,1.99,0.24,3.97,1.76,5.35c1.42,1.3,3.55-0.82,2.12-2.12c-0.67-0.61-1.13-1.5-0.99-2.43
				c0.12-0.8-0.2-1.61-1.05-1.85C214.2,217.96,213.19,218.4,213.07,219.21L213.07,219.21z"/>
		</g>
	</g>
	<g>
		<g>
			<path class="st1" d="M182.57,239.31c-0.04,1.62-0.61,3.12-1.68,4.34c-1.27,1.44,0.84,3.57,2.12,2.12
				c1.61-1.83,2.49-4.02,2.56-6.46C185.62,237.38,182.62,237.38,182.57,239.31L182.57,239.31z"/>
		</g>
	</g>
	<g>
		<g>
			<path class="st1" d="M167.45,230.25c-0.33-0.02-0.67-0.18-0.84-0.48c-0.09-0.24-0.11-0.28-0.07-0.13
				c-0.02-0.25-0.03-0.31-0.03-0.19c0,0.12,0.01,0.06,0.03-0.19c-0.03,0.12-0.03,0.11,0.02-0.02c0.17-0.35,0.49-0.56,0.89-0.58
				c-0.78,0.05-1.54,0.66-1.5,1.5c0.03,0.77,0.66,1.55,1.5,1.5c2.69-0.16,2.69-4.25,0-4.41c-0.78-0.05-1.53,0.72-1.5,1.5
				C165.99,229.61,166.61,230.2,167.45,230.25L167.45,230.25z"/>
		</g>
	</g>
	<g>
		<g>
			<path class="st1" d="M133.12,206.79c-1.59,1.09-3.18,2.18-4.77,3.27c-1.58,1.09-0.08,3.69,1.51,2.59
				c1.59-1.09,3.18-2.18,4.77-3.27C136.22,208.3,134.72,205.7,133.12,206.79L133.12,206.79z"/>
		</g>
	</g>
	<g>
		<g>
			<path class="st1" d="M127.76,230.24c0.53,2.14,1.06,4.28,1.59,6.42c0.46,1.87,3.36,1.08,2.89-0.8c-0.53-2.14-1.06-4.28-1.59-6.42
				C130.19,227.57,127.29,228.37,127.76,230.24L127.76,230.24z"/>
		</g>
	</g>
</g>
<g id="Layer_3">
	<g>
		<g>
			<path class="st3" d="M239.35,86.15c4.5,0,4.51-7,0-7C234.85,79.15,234.84,86.15,239.35,86.15L239.35,86.15z"/>
		</g>
	</g>
	<g>
		<g>
			<path class="st3" d="M171.14,82.64c-0.29,0.15-0.58,0.3-0.87,0.44c-1.63,0.83-2.24,3.26-1.26,4.79c1.08,1.67,3.04,2.15,4.79,1.26
				c0.29-0.15,0.58-0.3,0.87-0.44c1.63-0.83,2.24-3.26,1.26-4.79C174.85,82.22,172.88,81.75,171.14,82.64L171.14,82.64z"/>
		</g>
	</g>
	<g>
		<g>
			<path class="st0" d="M203.12,92.6c-0.08,0.01-0.15,0.02-0.23,0.03c0.72,0.41,1.44,0.83,2.16,1.24c-0.04-0.08-0.09-0.16-0.13-0.24
				c-0.13,1.01-0.26,2.02-0.39,3.03c1.75-1.77,5.58-2.67,7.88-3.47c1.26-0.44,2.54-0.83,3.83-1.18c0.34-0.09,3.75-0.69,3.9-0.93
				c-0.3-0.73-0.6-1.45-0.89-2.18c-1.04,0.52-2.09,0.99-3.16,1.43c-1.27,0.52-2.57,0.97-3.88,1.38c-2.85,0.89-5.77,1.52-8.72,1.91
				c-3.08,0.4-3.32,5.09,0,5c3.92-0.11,7.81-0.19,11.29,1.86c0.2-1.52,0.4-3.05,0.6-4.57c-3.68,0.9-6.91,0.05-9.88-2.23
				c-2.55-1.96-5.04,2.38-2.52,4.32c4.01,3.08,8.86,3.93,13.74,2.73c2.11-0.52,2.41-3.5,0.6-4.57c-4.27-2.51-8.98-2.68-13.81-2.55
				c0,1.67,0,3.33,0,5c3.82-0.5,24.43-3.59,20.69-10.85c-1.81-3.51-7.15-1.18-9.91-0.39c-4.02,1.15-10.27,2.7-13.28,5.75
				c-0.8,0.81-0.92,2.05-0.39,3.03c0.04,0.08,0.09,0.16,0.13,0.24c0.38,0.69,1.34,1.35,2.16,1.24c0.08-0.01,0.15-0.02,0.23-0.03
				C206.26,97.18,206.3,92.18,203.12,92.6L203.12,92.6z"/>
		</g>
	</g>
	<g>
		<g>
			<path class="st0" d="M156.35,246.44c0.03,5.08,0.95,11.08-0.53,15.94c-0.79,2.61-2.34,3.74-4.27,5.63
				c-0.63,0.61-4.06,4.83-4.73,4.79c0.83,0.83,1.67,1.67,2.5,2.5c-0.01-0.11-0.03-0.22-0.04-0.33c-0.41,0.72-0.83,1.44-1.24,2.16
				c0.1-0.08,0.21-0.15,0.31-0.23c-1.01-0.13-2.02-0.26-3.03-0.39c0.05,0.06,0.11,0.11,0.16,0.17c2.21,2.35,5.74-1.19,3.54-3.54
				c-0.05-0.06-0.11-0.11-0.16-0.17c-0.69-0.73-2.17-1.03-3.03-0.39c-0.1,0.08-0.21,0.15-0.31,0.23c-0.66,0.49-1.35,1.25-1.24,2.16
				c0.01,0.11,0.03,0.22,0.04,0.33c0.17,1.4,1.01,2.43,2.5,2.5c2.25,0.11,3.47-1.58,4.99-3.05c2.57-2.51,5.75-4.97,7.84-7.92
				c3.65-5.15,1.74-14.46,1.7-20.38C161.33,243.22,156.33,243.21,156.35,246.44L156.35,246.44z"/>
		</g>
	</g>
	<g>
		<g>
			<path class="st0" d="M157.18,263.52c-0.69,4.41-0.55,8.71,0.59,13.04c0.82,3.11,5.64,1.79,4.82-1.33
				c-0.89-3.41-1.14-6.89-0.59-10.38C162.49,261.7,157.68,260.35,157.18,263.52L157.18,263.52z"/>
		</g>
	</g>
	<g>
		<g>
			<path class="st0" d="M157.44,262.82c3.65,3.49,7.72,6.47,12.16,8.87c2.83,1.53,5.36-2.78,2.52-4.32
				c-4.08-2.21-7.79-4.89-11.14-8.09C158.64,257.06,155.1,260.59,157.44,262.82L157.44,262.82z"/>
		</g>
	</g>
	<g>
		<g>
			<path class="st0" d="M204.02,245.47c3.18,7.73,1.3,16.14-5.01,21.67c-2.43,2.12,1.12,5.65,3.54,3.54
				c7.49-6.56,10.1-17.3,6.3-26.53C207.64,241.21,202.8,242.5,204.02,245.47L204.02,245.47z"/>
		</g>
	</g>
	<g>
		<g>
			<path class="st0" d="M207.58,257.48c-0.32,3.79-0.02,7.54,0.82,11.25c0.71,3.14,5.53,1.81,4.82-1.33
				c-0.75-3.29-0.93-6.57-0.64-9.92C212.85,254.28,207.85,254.29,207.58,257.48L207.58,257.48z"/>
		</g>
	</g>
	<g>
		<g>
			<path class="st0" d="M209.63,260.31c3.53,2.18,7.05,4.37,10.58,6.55c2.74,1.7,5.26-2.62,2.52-4.32
				c-3.53-2.18-7.05-4.37-10.58-6.55C209.41,254.29,206.9,258.61,209.63,260.31L209.63,260.31z"/>
		</g>
	</g>
	<g>
		<g>
			<path class="st0" d="M165.17,94.26c-0.69,0.47-1.37,0.47-2.05-0.01c0-1.18,0-2.36,0-3.54c-0.13,0.16-0.54,0.6-0.55,0.61
				c-0.06,0.05-0.63,0.36-0.44,0.28c0.02-0.01-0.8,0.25-0.44,0.15c-0.31,0-0.35,0-0.11,0.02c1.29,1.42,1.24,2.44-0.12,3.08
				c-0.44,0-0.89,0-1.33,0c-0.09-0.04-0.18-0.09-0.27-0.13c2.77,1.64,5.29-2.68,2.52-4.32c-1.53-0.91-3.45-0.32-4.34,1.19
				c-0.87,1.48-0.45,3.33,0.91,4.34c2.39,1.79,5.99,0.42,7.71-1.69c0.9-1.11,0.96-2.43,0-3.54c-1.25-1.45-3.78-1.47-5.02,0.01
				c-0.87,1.03-1.01,2.52,0,3.54C162.53,95.15,164.3,95.29,165.17,94.26L165.17,94.26z"/>
		</g>
	</g>
	<g>
		<g>
			<path class="st0" d="M244.18,86c-0.37,0-0.74-0.01-1.11-0.01c-1.31-0.01-2.56,1.16-2.5,2.5c0.06,1.36,1.1,2.49,2.5,2.5
				c0.37,0,0.74,0.01,1.11,0.01c1.31,0.01,2.56-1.16,2.5-2.5C246.62,87.14,245.58,86.01,244.18,86L244.18,86z"/>
		</g>
	</g>
</g>
</svg>
