<svg xmlns="http://www.w3.org/2000/svg" viewBox="0 0 284.90078 287.62854"><defs><style>.cls-1{fill:#c23b22;}.cls-2{fill:#ffd963;}.cls-3{fill:#fbb040;}.cls-4{fill:#231f20;}</style></defs><title>chicken</title><g id="Layer_4" data-name="Layer 4"><path class="cls-1" d="M150.313,52.51842a257.29845,257.29845,0,0,1,31.78476-3.85569,58.565,58.565,0,0,0-1.327-9.45359,17.84562,17.84562,0,0,0-3.30776-7.7269c-1.82144-2.16522-4.80266-3.5612-7.527-2.79724-2.38612.66911-4.06651,2.7744-5.37722,4.87756a7.8472,7.8472,0,1,0-15.37675-2.16664,11.34567,11.34567,0,0,0-14.80769.28844,7.87521,7.87521,0,0,0-2.45322,4.32993c-.467,2.89665,1.27913,5.81342,3.69578,7.47727a18.39337,18.39337,0,0,0,8.30408,2.6443c1.87552.22951,4.343.99208,4.21964,2.87756-.13644,2.0851-3.2,2.26659-5.13177,1.47007a19.14015,19.14015,0,0,1-10.05041-9.74295,36.30522,36.30522,0,0,0,15.99674,9.56759,1.55822,1.55822,0,0,1-2.32876.86371,2.57989,2.57989,0,0,0,2.91628,1.136"/><path class="cls-1" d="M151.11055,55.41125a266.09562,266.09562,0,0,1,30.98724-3.74852,3.03693,3.03693,0,0,0,3-3c-.51258-6.89832-1.18573-16.15506-7.12139-20.783-6.07605-4.73737-12.22027-1.5149-16.008,4.16864l5.48325,2.31168c1.19054-6.01857-2.1692-12.46725-8.53011-13.67043-6.7504-1.27686-12.14976,4.41622-12.73948,10.70627l4.51416-2.59041c-7.42708-5.68725-22.88577-2.36439-21.77769,9.05165.51717,5.32819,5.032,8.91109,9.86705,10.33968a14.88289,14.88289,0,0,0,4.33791.83185c2.58792-.22352,2.11426-.85295.09731-1.73342-3.52158-1.53727-6.014-4.73456-7.67192-8.06889l-4.71173,3.63548A41.92909,41.92909,0,0,0,148.15768,53.201l-1.7929-4.407,1.05918-.515a3.02348,3.02348,0,0,0-2.91884,5.01415,5.83392,5.83392,0,0,0,5.0376,2.01467c3.83343-.25075,3.8615-6.25259,0-6l-.795-.25731-2.91884,5.01416c2.5308.69537,4.28569-.11586,5.71669-2.2424a3.02858,3.02858,0,0,0-1.79289-4.407,35.357,35.357,0,0,1-14.67294-8.79607c-2.50365-2.46657-6.20036.64159-4.71173,3.63547,2.39676,4.8203,6.59063,9.38954,11.8433,11.12163,3.38875,1.11746,8.4279.37782,8.8757-3.96414.55984-5.42833-5.58434-5.76451-9.27877-6.64337-4.10827-.97731-9.50337-4.51907-5.3126-8.96313,3.0286-3.21164,8.1181-2.158,11.17221.18066,1.99578,1.52825,4.32925-.61816,4.51416-2.59042.66732-7.11769,10.82518-5.41138,9.48391,1.36912a3.01474,3.01474,0,0,0,5.48325,2.31167c1.56433-2.34728,3.52111-4.63635,6.64412-2.86136,1.767,1.0043,2.7476,3.22882,3.35607,5.04227a47.01789,47.01789,0,0,1,1.94839,11.40511l3-3a279.94461,279.94461,0,0,0-32.58228,3.96285c-3.79358.68768-2.18639,6.47115,1.595,5.78567Z"/><g id="Layer_5" data-name="Layer 5"><path class="cls-2" d="M233.53142,137.92079a60.47963,60.47963,0,0,1,20.9887-8.293c2.14661-.40853,4.51087-.66509,6.39162.44739s2.67716,4.14254.94852,5.47919a43.97963,43.97963,0,0,1,6.04843-.44613c1.96586-.009,4.15516.21564,5.45868,1.68721,1.58573,1.79015,1.07537,4.736-.47363,6.558s-3.84926,2.793-6.06142,3.70162c3.26666,1.9829,6.98875,4.86415,6.44417,8.64653a6.6618,6.6618,0,0,1-3.81817,4.72027,19.68479,19.68479,0,0,1-6.0941,1.5423c-7.30966,1.0354-15.24986,1.95958-21.65113-1.7183"/><path class="cls-2" d="M234.79322,140.07947a60.84807,60.84807,0,0,1,11.963-5.79177c1.65-.56913,3.32655-1.06849,5.01862-1.49647q1.694-.42607,3.40984-.75272,3.14894-1.27872,4.90777,1.74811c-1.199,1.43886-.60986,4.56746,1.76777,4.26777,2.01471-.254,5.29051-1.04761,7.205-.34659,5.312,1.94508-.01463,5.72607-2.89753,6.93659-1.93976.8145-2.557,3.3247-.5972,4.56938,3.20352,2.03456,6.99684,5.37145,2.9804,8.68314-2.09987,1.73142-6.62963,1.79983-9.15149,2.08225-5.62159.62956-11.26781.76808-16.42454-1.892-2.85526-1.47284-5.38734,2.84014-2.5236,4.31736a28.79049,28.79049,0,0,0,14.9387,2.92184c4.71971-.219,10.74861-.482,15.03153-2.61983,3.18348-1.58905,5.67473-4.65611,5.36841-8.38112-.36121-4.39241-4.29066-7.26642-7.69581-9.429l-.5972,4.56938c4.64144-1.94893,10.373-5.23322,9.20735-11.244-1.3051-6.72983-9.79895-5.80334-14.844-5.16743l1.76776,4.26777c3.98061-4.777-.194-10.3982-5.81239-10.541-8.66765-.22035-18.36508,4.57939-25.546,8.981-2.739,1.67887-.23,6.00519,2.5236,4.31736Z"/></g></g><g id="Layer_1" data-name="Layer 1"><path class="cls-3" d="M184.40448,53.24808c-32.991-9.87119-68.54829,9.16206-79.15624,41.74525-5.40864,16.61305-.94487,35.0134-13.60737,48.87957-5.82772,6.38168-12.60991,11.66833-17.79348,18.66a57.00138,57.00138,0,0,0-10.5617,23.21237c-3.10971,16.62971,3.35682,33.08662,17.82077,42.09665,14.142,8.80944,31.90006,11.05031,48.01239,13.73411,19.67129,3.27662,39.86712,6.46146,59.85818,6.26911,16.74315-.1611,35.06745-3.17323,48.16089-14.46748,12.81338-11.05268,15.89928-28.142,13.571-44.24-2.553-17.65168-13.98862-34.00681-12.90586-52.13332a43.19634,43.19634,0,0,1,2.64773-12.17151"/><path class="cls-3" d="M185.06908,50.83739c-29.66984-8.51363-62.39466,4.94525-77.2996,32.08986a66.53108,66.53108,0,0,0-7.4618,23.34284c-1.13871,8.37117-1.28176,17.05012-4.1213,25.091-3.51892,9.96466-12.05718,16.09357-19.07607,23.49919a64.39651,64.39651,0,0,0-14.50013,23.58943c-5.14972,15.32566-2.4382,32.77181,8.82565,44.71145,12.55706,13.31046,32.451,16.78736,49.67382,19.62356,21.17892,3.48768,42.46959,7.32235,63.99578,7.55634,17.52194.19047,36.39883-2.07913,50.85754-12.8413,14.96736-11.14078,19.69167-29.76215,17.34425-47.62913-2.91734-22.20477-18.37758-41.3894-10.44575-64.37323,1.05192-3.04812-3.77628-4.35759-4.82139-1.3292-5.96555,17.28618.05222,32.69443,5.8113,49.07988,5.40119,15.36717,8.00908,33.00572-.12745,47.98633-8.5763,15.7903-27.06467,21.97315-43.94375,23.57151-19.4816,1.8448-39.29363-.75694-58.521-3.77219-17.58174-2.75717-36.81785-4.37393-53.05372-12.16044-15.223-7.30072-24.50465-21.60951-23.02032-38.73509.82931-9.56823,5.1-18.73094,10.821-26.34352,5.55458-7.39119,13.23871-12.80537,18.97047-20.01791,9.86361-12.41183,8.119-28.31231,11.30109-42.93765,7.441-34.20019,44.3743-54.67474,77.46226-45.18031,3.0986.88913,4.42152-3.93407,1.3292-4.82139Z"/><path class="cls-3" d="M166.6125,50.88075c14.11736-1.33068,28.55382-2.04645,42.30146,1.42817s26.88823,11.71682,33.26248,24.38329c8.8456,17.57738,2.9782,38.87528-5.15306,56.79431"/><path class="cls-3" d="M166.6125,53.38075c22.37266-2.06094,48.16422-2.6274,65.56577,14.0716,18.37741,17.63546,11.88851,44.21439,2.68643,64.77237-1.30366,2.91245,3.00365,5.45847,4.31735,2.52359,9.72807-21.733,16.43628-49.17943-1.43915-68.75359-17.99833-19.70874-46.57537-19.876-71.1304-17.614-3.17752.29271-3.20818,5.29553,0,5Z"/><path class="cls-3" d="M75.70463,178.26573c-4.23782.56372-8.40994-1.94056-11.0381-5.31245s-4.01584-7.51817-5.40837-11.56016c-1.9914-5.78031-4.1905-11.69886-8.37515-16.156s-10.88105-7.11776-16.56379-4.863a4.22787,4.22787,0,0,0-1.80294,1.1866,5.18723,5.18723,0,0,0-.78855,3.106c-.2354,6.29582-.44692,12.76226,1.61279,18.71629,2.32729,6.72754,7.40616,12.22759,13.24129,16.30528s12.44472,6.884,18.99966,9.66052"/><path class="cls-3" d="M75.70463,175.76573c-8.56521.47015-11.69784-8.39381-14.03577-15.03721-1.91587-5.4441-3.91424-10.92488-7.5338-15.5026a21.12138,21.12138,0,0,0-12.345-7.86024c-3.50218-.67871-8.81633-.41053-11.237,2.68027-2.74423,3.50385-1.63262,10.91472-1.32451,14.96442a32.70524,32.70524,0,0,0,4.99213,15.7298c6.98367,10.64632,18.78727,15.96864,30.099,20.76728,2.92822,1.2422,5.47933-3.06348,2.5236-4.31735-9.5294-4.04255-19.6384-8.26855-26.42978-16.42856a27.46952,27.46952,0,0,1-6.18494-15.75117,39.19649,39.19649,0,0,1-.06274-8.62293c.59562-3.74808,2.94274-4.75371,6.62131-4.08975,19.76628,3.56772,12.52192,39.69734,34.91751,38.468,3.2-.17564,3.22052-5.17677,0-5Z"/><path class="cls-3" d="M72.95051,186.61539c-2.59189,3.6079-7.66108,4.6994-12.011,3.79769s-8.165-3.41918-11.86011-5.88513A68.89446,68.89446,0,0,1,38.5739,176.4983c-2.00759-1.98971-3.82634-4.27066-6.3261-5.58995-3.262-1.72156-7.15766-1.54172-10.83931-1.3186a4.13769,4.13769,0,0,0-3.06368,1.05919,3.61581,3.61581,0,0,0-.63995,2.12792c-.38774,6.7754,3.99056,13.186,9.76587,16.75s12.732,4.6926,19.51387,4.94146,13.587-.3053,20.35218.23214"/><path class="cls-3" d="M71.18274,184.84763C62.20079,195.50926,44.41487,178.637,37.864,172.18715a17.54636,17.54636,0,0,0-13.26717-5.23471c-3.50489-.00421-7.91118.03552-9.14611,4.03195-2.836,9.17771,6.28562,18.8081,13.738,22.28738,11.91825,5.56424,25.47887,3.0987,38.148,3.92867,3.21256.21046,3.19975-4.79038,0-5-10.91851-.71528-22.51864,1.30351-33.08259-2.27447C29.03788,188.15921,24.2497,184.8565,21.726,179.8299a11.64425,11.64425,0,0,1-1.38441-4.52218c.01-2.29368.525-2.85057,2.65538-3.30553a13.29,13.29,0,0,1,8.88853,1.6661c3.63229,2.32437,6.34955,6.11785,9.81925,8.7494a81.54815,81.54815,0,0,0,12.54023,8.172c6.70647,3.34079,15.21221,4.03841,20.47329-2.20653,2.06075-2.44612-1.45884-6.00058-3.53553-3.53553Z"/><path class="cls-3" d="M62.70326,192.82252A88.85948,88.85948,0,0,1,36.368,195.86094c-3.30659-.11624-6.91713-.33378-9.59509,1.6093-2.98192,2.16361-3.74118,6.58438-2.2984,9.97428s4.67261,5.77255,8.15393,6.97816c6.77655,2.34678,14.42826.66036,20.67631-2.85969s11.359-8.71044,16.37993-13.83089"/><path class="cls-3" d="M62.03866,190.41182a89.79573,89.79573,0,0,1-19.02014,2.92729c-4.67382.18733-9.85474-.77931-14.41527.53131-7.662,2.20193-9.21949,11.57862-4.6988,17.4398,5.32551,6.90465,15.32828,7.78939,23.16376,5.557,9.90006-2.82057,17.371-10.22518,24.38424-17.36737,2.25639-2.29787-1.27643-5.83617-3.53554-3.53554-4.84386,4.93289-9.77016,10.05539-15.87395,13.44-6.63277,3.67791-16.35333,5.76168-22.69338.334-3.95134-3.38273-4.54863-9.78168,1.63991-11.22552,3.1554-.73618,6.92094-.0581,10.12934-.11788a95.53464,95.53464,0,0,0,22.249-3.16167c3.112-.8082,1.79264-5.63215-1.3292-4.8214Z"/><path class="cls-2" d="M119.68464,152.12092a3.03106,3.03106,0,0,1-2.85155.70771c5.36644-3.133,11.01625-6.00438,17.13624-7.08141s12.83061-.1579,17.71806,3.67968,7.38635,10.93746,4.85075,16.61063a21.99039,21.99039,0,0,1-4.68414,6.18229c-12.90029,13.14065-28.98739,23.93764-47.14209,27.02011-3.23377.54906-6.92114.731-9.40887-1.40672s-1.95254-7.30392,1.30992-7.64313c-3.21016,1.25483-7.13065,1.62892-9.87918-.45084s-2.92081-7.21655.268-8.52461c-2.8742.88783-5.39927-2.89229-4.58285-5.78759s3.526-4.78178,6.06683-6.39225a377.54306,377.54306,0,0,1,41.21286-22.65338"/><path class="cls-2" d="M118.42284,149.96225l-1.58975.36638,1.2618,4.65868c8.47658-4.88058,18.88206-9.81873,28.63417-5.56511,4.88646,2.13134,8.67091,6.98485,8.29269,12.51744-.35281,5.16081-5.50187,9.21446-9.02151,12.48831a97.512,97.512,0,0,1-22.695,16.0343,70.97538,70.97538,0,0,1-12.93807,4.96747,45.98942,45.98942,0,0,1-7.40973,1.52245,8.829,8.829,0,0,1-3.89043-.18c-.74841-.24649-5.15321-3.27579-1.78946-4.17136l-1.32919-4.82139c-1.77225.60079-4.073,1.35521-5.951.76756-1.88832-.59087-4.53161-3.53924-1.73375-5.17363,1.98973-1.16233,1.309-4.963-1.2618-4.65868q-4.11876-2.41065-.42831-5.19776a22.42175,22.42175,0,0,1,3.17409-2.3234c1.55578-1.05294,3.19013-2.00528,4.79212-2.98737q6.01814-3.68938,12.17174-7.15077,11.89747-6.695,24.249-12.51525c2.9058-1.37774.37131-5.68992-2.5236-4.31735A374.09338,374.09338,0,0,0,88.0202,166.37424c-3.7963,2.4124-8.55452,5.61336-8.19519,10.73629.26492,3.77691,3.25222,7.06872,7.17681,6.6041L85.74,179.056a7.52212,7.52212,0,0,0-2.4986,10.38548c2.87414,4.9646,9.28886,4.76868,14.03614,3.15934,3.02227-1.02455,1.811-5.65744-1.32919-4.82139-4.24034,1.12894-5.75987,5.91412-3.93626,9.73241,2.367,4.956,8.74975,4.89716,13.3644,4.13884,15.15465-2.49035,28.96966-10.55487,40.503-20.42318,4.91076-4.2018,11.65215-9.34549,13.56627-15.85771,1.68028-5.71664-.38394-12.0183-4.41026-16.247-10.89791-11.4458-27.98736-5.06083-39.46425,1.54725a2.51974,2.51974,0,0,0,1.26179,4.65868,6.48338,6.48338,0,0,0,4.11334-1.049c2.83056-1.53261.3092-5.85117-2.52359-4.31735Z"/></g><g id="Layer_2" data-name="Layer 2"><path class="cls-2" d="M180.681,166.56877l-3.09392,6.7975c-.79386,1.74416,1.79087,3.27081,2.59042,1.51416l3.09391-6.7975c.79386-1.74416-1.79087-3.27081-2.59041-1.51416Z"/><path class="cls-2" d="M206.31555,163.46561a9.25384,9.25384,0,0,0-.8592,5.71676,1.51064,1.51064,0,0,0,1.84517,1.04766,1.53733,1.53733,0,0,0,1.04766-1.84518,5.73828,5.73828,0,0,1,.55678-3.40508c.857-1.72341-1.72979-3.24485-2.59041-1.51416Z"/><path class="cls-2" d="M238.036,160.84707a10.68391,10.68391,0,0,0,4.49439,5.43275,1.50112,1.50112,0,0,0,1.51415-2.59041,7.37277,7.37277,0,0,1-3.11571-3.63986,1.54359,1.54359,0,0,0-1.84517-1.04766,1.51127,1.51127,0,0,0-1.04766,1.84518Z"/><path class="cls-2" d="M219.09387,177.22642l1.55949,2.2453a1.53929,1.53929,0,0,0,2.05228.53812,1.51323,1.51323,0,0,0,.53813-2.05228l-1.55949-2.24529a1.53929,1.53929,0,0,0-2.05228-.53813,1.51323,1.51323,0,0,0-.53813,2.05228Z"/><path class="cls-2" d="M194.45667,198.83036a7.23789,7.23789,0,0,0-1.967,5.59909,1.54153,1.54153,0,0,0,1.5,1.5,1.51065,1.51065,0,0,0,1.5-1.5,4.31435,4.31435,0,0,1,1.08836-3.47777c1.30805-1.41681-.80826-3.54356-2.12132-2.12132Z"/><path class="cls-2" d="M171.25953,192.54928a18.97115,18.97115,0,0,0-6.70627,7.2905c-.886,1.71224,1.7019,3.23131,2.59041,1.51416a15.96082,15.96082,0,0,1,5.63-6.21424c1.62289-1.03536.11989-3.63289-1.51416-2.59042Z"/><path class="cls-2" d="M224.02012,203.97353l1.51668,1.51668a1.5,1.5,0,1,0,2.12132-2.12132l-1.51668-1.51668a1.5,1.5,0,0,0-2.12132,2.12132Z"/><path class="cls-2" d="M241.10557,199.51638l2.2453,1.55948a1.51373,1.51373,0,0,0,2.05228-.53812,1.53059,1.53059,0,0,0-.53813-2.05229l-2.24529-1.55948a1.51373,1.51373,0,0,0-2.05228.53812,1.53058,1.53058,0,0,0,.53812,2.05229Z"/><path class="cls-2" d="M213.06589,219.20646a5.86528,5.86528,0,0,0,1.75979,5.3519c1.42328,1.29967,3.55072-.81606,2.12132-2.12132a2.7872,2.7872,0,0,1-.98827-2.43306,1.54808,1.54808,0,0,0-1.04766-1.84518,1.51137,1.51137,0,0,0-1.84518,1.04766Z"/><path class="cls-2" d="M182.56941,239.313a6.73543,6.73543,0,0,1-1.67713,4.33775c-1.27084,1.44446.843,3.57429,2.12132,2.12132a10.00078,10.00078,0,0,0,2.55581-6.45907c.04972-1.93122-2.95031-1.93013-3,0Z"/><path class="cls-2" d="M167.44785,230.25145a1.044,1.044,0,0,1-.84267-.47588q-.1318-.35838-.065-.12956-.035-.368-.032-.18769-.003.18028.032-.18769-.05212.17394.02172-.02452a1.02342,1.02342,0,0,1,.8859-.581,1.5,1.5,0,0,0,0,3,2.21558,2.21558,0,0,0,.00011-4.41366,1.50885,1.50885,0,0,0-1.5,1.5,1.53469,1.53469,0,0,0,1.5,1.5Z"/><path class="cls-2" d="M133.12025,206.79191l-4.76811,3.2721c-1.582,1.08565-.08327,3.68664,1.51416,2.59041l4.76811-3.2721c1.582-1.08565.08327-3.68664-1.51416-2.59041Z"/><path class="cls-2" d="M127.75654,230.24355,129.343,236.664c.46288,1.87329,3.35672,1.07981,2.89284-.79752l-1.58647-6.42042c-.46288-1.87328-3.35672-1.0798-2.89283.79752Z"/></g><g id="Layer_3" data-name="Layer 3"><path class="cls-1" d="M203.1162,92.59915l-.22953.03029,2.15868,1.23821-.13043-.24018L204.524,96.657c1.7482-1.76941,5.58105-2.6724,7.88346-3.466q1.89591-.65351,3.83393-1.18439a27.714,27.714,0,0,0,3.90249-.93379l-.89445-2.17864q-1.55423.77286-3.16227,1.42771c-1.27162.51534-2.57079.96985-3.88049,1.37742a52.19755,52.19755,0,0,1-8.72211,1.90794c-3.08042.40414-3.31634,5.09173,0,5,3.91651-.10834,7.811-.18535,11.28924,1.86256l.5972-4.56938a11.10175,11.10175,0,0,1-9.8843-2.22974c-2.55027-1.95908-5.043,2.382-2.5236,4.31736a15.811,15.811,0,0,0,13.7371,2.73378,2.52809,2.52809,0,0,0,.5972-4.56938c-4.26738-2.51256-8.97844-2.67893-13.81284-2.5452v5c3.82242-.5015,24.43156-3.58518,20.69368-10.84644-1.80653-3.50938-7.15224-1.179-9.90924-.392-4.01584,1.14636-10.26819,2.70373-13.28054,5.75264a2.56427,2.56427,0,0,0-.39091,3.02956l.13042.24018a2.42765,2.42765,0,0,0,2.15868,1.2382l.22953-.03029c3.14421-.41492,3.18547-5.42037,0-5Z"/><path class="cls-1" d="M156.3469,246.43593c.03177,5.07983.94911,11.0798-.52935,15.94334-.79333,2.60972-2.33633,3.74277-4.26547,5.62532-.62777.61262-4.0613,4.82594-4.73276,4.79226l2.5,2.5-.04179-.3339-1.23821,2.15867.30949-.2305-3.02956-.39091.16092.17156c2.206,2.352,5.73645-1.189,3.53553-3.53553l-.16092-.17157a2.51316,2.51316,0,0,0-3.02956-.39091l-.30949.23051a2.512,2.512,0,0,0-1.2382,2.15868l.04179.3339a2.58151,2.58151,0,0,0,2.5,2.5c2.25406.113,3.472-1.57629,4.987-3.05461,2.57285-2.51073,5.74944-4.96968,7.84192-7.92389,3.65073-5.1542,1.73573-14.462,1.69871-20.38242-.02011-3.21627-5.02015-3.22334-5,0Z"/><path class="cls-1" d="M157.17547,263.52193a31.35252,31.35252,0,0,0,.58947,13.03535c.81628,3.10962,5.64045,1.791,4.8214-1.3292a25.16175,25.16175,0,0,1-.58948-10.377c.49536-3.14786-4.32185-4.50366-4.82139-1.32919Z"/><path class="cls-1" d="M157.43558,262.82061a56.65041,56.65041,0,0,0,12.1567,8.874c2.82988,1.53262,5.35706-2.7828,2.5236-4.31735a51.6144,51.6144,0,0,1-11.14477-8.09221c-2.32721-2.22229-5.86832,1.30792-3.53553,3.53554Z"/><path class="cls-1" d="M204.022,245.47348a18.73578,18.73578,0,0,1-5.01079,21.66514c-2.42522,2.12408,1.12291,5.64859,3.53553,3.53553a23.53246,23.53246,0,0,0,6.29666-26.52987c-1.20819-2.93427-6.04761-1.64885-4.8214,1.3292Z"/><path class="cls-1" d="M207.57786,257.48228a36.47444,36.47444,0,0,0,.82158,11.25084c.71258,3.13648,5.53437,1.809,4.82139-1.3292a32.01909,32.01909,0,0,1-.643-9.92164c.274-3.20568-4.72754-3.1874-5,0Z"/><path class="cls-1" d="M209.63,260.30758l10.58159,6.55392c2.74324,1.69908,5.25686-2.62445,2.52359-4.31735l-10.58158-6.55392c-2.74325-1.69909-5.25686,2.62445-2.5236,4.31735Z"/><path class="cls-1" d="M165.17155,94.25614a1.6547,1.6547,0,0,1-2.04767-.01027V90.71033c-.12747.15612-.54158.59953-.553.60824-.06029.046-.6268.35559-.44246.278.02164-.00912-.79587.25451-.4405.15249q-.46907-.00662-.10864.01546,1.92792,2.12309-.12437,3.08277H160.1257l-.26973-.13357c2.77414,1.645,5.29215-2.6757,2.52359-4.31736a3.16344,3.16344,0,0,0-4.33579,1.19342,3.309,3.309,0,0,0,.90974,4.34142c2.39105,1.79124,5.98625.42079,7.70591-1.68533a2.586,2.586,0,0,0,0-3.53554,3.42524,3.42524,0,0,0-5.02341.01028,2.56768,2.56768,0,0,0,0,3.53553,2.52063,2.52063,0,0,0,3.53554,0Z"/><path class="cls-1" d="M244.17725,85.99752l-1.10774-.00775a2.5,2.5,0,0,0,0,5l1.10774.00775a2.5,2.5,0,0,0,0-5Z"/><path class="cls-4" d="M168.54857,86.34978c.47276-.502.95347-.99539,1.45135-1.4726a13.29072,13.29072,0,0,0,1.57514-1.41933,6.31771,6.31771,0,0,1-1.05378-.44147,6.712,6.712,0,0,1,.16677,1.245c.0131,3.21664,5.01313,3.2231,5,0-.01-2.45352-.94746-5.307-3.6941-5.76689-2.83943-.47543-5.24069,2.47167-6.98091,4.31975-2.20491,2.34156,1.324,5.88409,3.53553,3.53553Z"/><path class="cls-4" d="M240.18253,81.93474a8.84989,8.84989,0,0,1,2.153-2.30218l-3.02956.39091c.044.0256.57667.43648.31187.19277.0662.06093.485.57948.26019.25928a2.56728,2.56728,0,0,0,3.42047.89687,2.52136,2.52136,0,0,0,.89688-3.42047,7.39938,7.39938,0,0,0-2.36582-2.2458A2.59822,2.59822,0,0,0,238.8,76.097a12.97156,12.97156,0,0,0-2.93482,3.31411,2.52216,2.52216,0,0,0,.89687,3.42047,2.55354,2.55354,0,0,0,3.42048-.89687Z"/></g></svg>